<?xml version="1.0" standalone="no"?>
<!DOCTYPE svg PUBLIC "-//W3C//DTD SVG 20010904//EN"
 "http://www.w3.org/TR/2001/REC-SVG-20010904/DTD/svg10.dtd">
<svg version="1.0" xmlns="http://www.w3.org/2000/svg"
 width="500.000000pt" height="500.000000pt" viewBox="0 0 500.000000 500.000000"
 preserveAspectRatio="xMidYMid meet">

<g transform="translate(0.000000,500.000000) scale(0.100000,-0.100000)"
fill="#000000" stroke="none">
<path d="M3359 4985 c-69 -17 -197 -68 -258 -102 -234 -132 -306 -192 -398
-330 -143 -213 -199 -364 -210 -564 -7 -138 -2 -149 61 -149 113 0 249 37 389
106 104 51 127 69 235 188 223 245 314 453 329 749 l6 117 -49 -1 c-27 0 -74
-7 -105 -14z"/>
<path d="M3325 3794 c-167 -24 -322 -70 -560 -167 -146 -60 -152 -61 -240 -61
-87 0 -95 3 -255 66 -320 128 -493 165 -677 147 -396 -40 -775 -316 -959 -696
-48 -98 -129 -348 -150 -463 -28 -149 -26 -533 4 -695 38 -204 73 -356 103
-450 16 -49 29 -96 29 -105 0 -21 68 -195 119 -305 64 -136 185 -351 246 -434
30 -41 55 -78 55 -83 0 -11 109 -154 185 -241 77 -90 247 -225 334 -265 68
-32 87 -36 181 -40 127 -5 178 7 438 103 214 80 310 99 452 92 125 -6 211 -28
403 -103 168 -65 231 -82 352 -90 239 -16 446 109 656 396 161 221 329 484
329 518 0 7 22 56 49 110 26 53 65 141 86 195 43 113 44 112 -49 159 -34 17
-75 41 -92 54 -17 13 -36 24 -42 24 -19 0 -222 202 -266 264 -61 87 -90 146
-126 264 -82 264 -77 514 15 782 50 143 168 293 333 420 39 30 84 65 99 77
l28 23 -25 46 c-60 113 -198 224 -408 330 -103 52 -233 92 -367 114 -78 13
-234 21 -280 14z"/>
</g>
</svg>
