<?xml version="1.0" standalone="no"?>
<!DOCTYPE svg PUBLIC "-//W3C//DTD SVG 20010904//EN"
 "http://www.w3.org/TR/2001/REC-SVG-20010904/DTD/svg10.dtd">
<svg version="1.0" xmlns="http://www.w3.org/2000/svg"
 width="512.000000pt" height="512.000000pt" viewBox="0 0 512.000000 512.000000"
 preserveAspectRatio="xMidYMid meet">
<metadata>
Created by potrace 1.16, written by Peter Selinger 2001-2019
</metadata>
<g transform="translate(0.000000,512.000000) scale(0.100000,-0.100000)"
fill="#000000" stroke="none">
<path d="M1853 5105 c-99 -27 -184 -76 -259 -150 -76 -76 -119 -143 -155 -245
-23 -63 -24 -75 -27 -493 l-3 -429 -36 -31 c-58 -51 -73 -95 -73 -223 0 -103
2 -116 28 -165 37 -70 100 -111 181 -117 l57 -4 22 -86 c30 -115 124 -307 201
-410 34 -46 61 -85 59 -86 -2 -1 -33 -17 -70 -34 -205 -99 -346 -290 -383
-517 l-6 -40 -316 -94 c-173 -52 -333 -103 -354 -114 -67 -33 -136 -103 -168
-170 -23 -50 -39 -120 -81 -362 -28 -164 -49 -310 -45 -322 13 -55 102 -70
136 -23 13 17 32 108 64 295 54 315 58 332 97 380 48 57 29 50 626 230 l42 13
0 -69 c0 -38 -4 -69 -10 -69 -5 0 -34 -9 -65 -21 -104 -39 -198 -148 -224
-260 -13 -52 -61 -656 -61 -758 0 -149 68 -211 233 -211 74 0 86 3 105 23 27
29 28 77 3 108 -15 19 -31 24 -97 28 l-79 6 -3 45 c-4 63 46 686 59 735 16 59
92 129 157 145 102 24 219 -25 263 -112 18 -36 25 -90 51 -415 23 -292 27
-377 17 -389 -7 -9 -30 -14 -64 -14 -99 0 -146 -38 -129 -104 11 -44 39 -56
132 -56 94 0 133 13 178 59 58 59 59 79 29 473 -14 194 -30 377 -36 407 -12
71 -48 149 -93 198 -36 40 -127 95 -178 107 l-28 6 0 93 0 93 122 37 c93 28
124 34 130 25 27 -44 379 -936 594 -1506 48 -129 96 -245 106 -258 27 -34 89
-34 116 0 10 13 58 129 106 258 215 570 567 1462 594 1506 6 9 37 3 130 -25
l122 -37 0 -217 0 -217 -37 -12 c-129 -41 -235 -158 -263 -291 -27 -126 8
-254 96 -348 170 -184 472 -162 609 44 52 78 68 142 63 245 -5 100 -32 169
-96 241 -40 45 -130 100 -184 113 l-28 6 0 194 0 194 43 -13 c435 -131 528
-160 559 -176 45 -23 92 -79 106 -127 16 -54 232 -1326 232 -1365 0 -22 -8
-41 -21 -53 -21 -19 -70 -19 -2089 -19 -2019 0 -2068 0 -2089 19 -29 26 -27
55 14 291 19 110 35 212 35 226 0 36 -28 68 -67 75 -27 5 -37 1 -61 -22 -26
-27 -31 -45 -65 -251 -21 -121 -38 -243 -39 -270 0 -89 48 -168 127 -204 39
-18 117 -19 2145 -19 2028 0 2106 1 2145 19 79 37 128 115 126 206 -1 85 -228
1394 -253 1455 -26 64 -111 155 -174 186 -23 11 -184 63 -358 115 l-315 94 -7
45 c-31 217 -184 420 -384 513 -36 17 -66 31 -68 33 -2 1 25 40 59 86 77 103
171 295 201 410 l22 86 57 4 c81 6 144 47 181 117 26 49 28 62 28 165 0 128
-15 172 -73 223 l-37 32 0 140 c0 150 -7 182 -47 200 -35 16 -57 14 -84 -8
-23 -18 -24 -25 -29 -191 l-5 -172 -60 -19 c-33 -10 -61 -19 -62 -19 -2 0 -3
147 -3 328 -1 249 -4 336 -14 365 -35 96 -117 170 -215 194 -68 15 -281 17
-349 2 -28 -5 -74 -25 -103 -44 -104 -65 -132 -77 -179 -77 -47 0 -75 12 -179
77 -29 19 -75 39 -103 44 -68 15 -281 13 -349 -2 -98 -24 -180 -98 -215 -194
-10 -29 -13 -116 -14 -365 0 -181 -1 -328 -2 -328 -2 0 -30 9 -63 19 l-60 19
-3 383 c-1 215 2 412 7 447 27 175 152 314 326 363 40 11 165 14 655 14 648 0
648 0 752 -51 70 -35 153 -122 189 -197 34 -74 49 -150 49 -257 0 -84 13 -114
56 -124 38 -10 80 11 95 45 19 47 6 248 -21 329 -66 197 -222 344 -417 395
-82 21 -1331 21 -1410 0z m474 -698 c83 -57 145 -78 233 -78 88 0 150 21 233
78 l69 48 133 3 c155 4 209 -11 245 -70 19 -32 20 -49 20 -398 0 -225 4 -380
11 -403 12 -43 57 -77 103 -77 l28 0 -5 -137 c-3 -114 -9 -150 -29 -208 -100
-279 -298 -510 -522 -609 -98 -44 -172 -59 -286 -59 -114 0 -188 15 -286 59
-182 80 -352 252 -459 464 -72 143 -87 200 -92 353 l-5 137 28 0 c46 0 91 34
103 77 7 23 11 178 11 403 0 348 1 367 20 398 36 59 84 73 241 70 l137 -3 69
-48z m-794 -807 l27 0 0 -95 0 -95 -28 0 c-16 0 -38 9 -50 20 -19 18 -22 31
-22 102 0 78 1 80 23 74 12 -3 34 -6 50 -6z m2127 -70 c0 -69 -3 -82 -22 -100
-12 -11 -34 -20 -50 -20 l-28 0 0 94 0 95 38 4 c20 2 43 4 50 5 9 2 12 -20 12
-78z m-1672 -1132 c-3 -119 -5 -136 -26 -165 -21 -30 -25 -31 -75 -27 -42 4
-78 -3 -186 -35 -74 -23 -135 -40 -137 -38 -7 7 41 119 72 165 69 105 194 198
296 222 63 15 60 22 56 -122z m1291 85 c124 -61 236 -192 269 -315 6 -21 9
-38 8 -38 -1 0 -63 18 -137 41 -104 31 -146 39 -187 36 -50 -3 -54 -2 -75 27
-20 27 -22 46 -26 165 l-3 134 38 -7 c22 -4 72 -24 113 -43z m-1043 -87 c95
-40 196 -58 324 -58 153 0 241 20 398 89 9 4 12 -13 12 -69 0 -80 20 -164 51
-215 l20 -32 -241 -181 -240 -180 -240 180 -241 181 20 32 c31 51 51 135 51
215 0 56 3 73 13 69 6 -3 40 -17 73 -31z m-34 -582 c101 -75 184 -139 186
-143 2 -5 -120 -61 -214 -98 -7 -2 -41 70 -85 179 -41 100 -75 186 -77 190 -8
18 15 2 190 -128z m906 128 c-1 -4 -36 -90 -77 -190 -44 -109 -78 -181 -85
-179 -94 37 -216 93 -214 98 4 10 361 277 371 278 5 1 7 -3 5 -7z m-450 -423
l63 -29 -38 -45 -37 -45 -86 0 -86 0 -37 45 -38 45 63 29 c88 39 91 40 112 34
11 -3 49 -18 84 -34z m1099 -178 c114 -58 157 -200 96 -313 -79 -145 -268
-164 -376 -38 -131 153 -11 391 189 376 28 -3 69 -13 91 -25z m-1109 -278 c18
-98 32 -185 32 -193 0 -21 -112 -320 -119 -320 -8 0 -121 299 -121 320 0 8 14
95 32 193 l32 177 56 0 56 0 32 -177z"/>
</g>
</svg>
