<svg width="589" height="555" viewBox="0 0 589 555" fill="none" xmlns="http://www.w3.org/2000/svg">
<g clip-path="url(#clip0_1266_12448)">
<path d="M567.8 454.139H21.2003C9.51067 454.139 0 443.559 0 430.553V357.365H589V430.553C589 443.559 579.49 454.139 567.8 454.139Z" fill="#E6E6E6"/>
<path d="M365.243 441.896H225.853V552.662H365.243V441.896Z" fill="#E6E6E6"/>
<path d="M373.627 538.671H217.469V552.662H373.627V538.671Z" fill="#E6E6E6"/>
<path d="M588.476 388.263H0V16.1856C0 7.26103 6.52673 0 14.5487 0H573.927C581.949 0 588.476 7.26103 588.476 16.1856V388.263Z" fill="#3F3D56"/>
<path d="M574.327 16.9062H13.6246V367.858H574.327V16.9062Z" fill="white"/>
<path d="M122.211 226.083C126.503 222.138 131.811 221.404 134.067 224.443C136.324 227.482 134.673 233.142 130.38 237.088C128.684 238.69 126.668 239.817 124.501 240.375L106.128 256.835L99.3687 247.078L118.199 231.888C119.1 229.624 120.476 227.634 122.211 226.083Z" fill="#FFB6B6"/>
<path d="M16.0174 263.221C16.0081 262.493 16.0142 256.143 20.2395 252.13C25.0932 247.52 31.9421 249.386 34.3443 250.04C39.8934 251.552 40.3485 254.2 45.5596 256.922C55.3092 262.012 43.0934 259.407 48.8946 257.774C50.9027 257.209 79.7918 254.98 86.9828 250.056C100.968 240.48 110.498 234.673 110.498 234.673L116.727 248.534C116.727 248.534 107.719 262.468 95.0415 272.791C82.0369 283.38 75.5346 288.674 65.6529 290.72C64.8019 290.896 43.8732 294.872 27.0168 280.861C23.1719 277.666 16.1272 271.81 16.0174 263.221Z" fill="#052970"/>
<path d="M35.3418 227.969C47.327 227.969 57.0429 217.16 57.0429 203.827C57.0429 190.493 47.327 179.684 35.3418 179.684C23.3566 179.684 13.6406 190.493 13.6406 203.827C13.6406 217.16 23.3566 227.969 35.3418 227.969Z" fill="#FFB6B6"/>
<path d="M205.297 366.027L182.948 340.576L171.411 353.964L188.062 378.367L204.578 380.468L205.297 366.027Z" fill="#FFB6B6"/>
<path d="M77.6822 318.3C78.9894 318.421 83.1435 319.347 87.114 316.917C89.8237 315.258 91.2135 312.792 91.6828 312.008C97.506 302.278 119.857 287.106 139.916 286.172C144.458 285.961 147.448 286.546 150.166 288.122C154.02 290.357 155.558 293.558 160.448 301.057C163.123 305.159 166.083 309.023 168.79 313.099C184.639 336.96 190.647 338.833 190.033 346.483C189.352 354.971 181.124 363.023 175.655 362.093C173.416 361.713 172.549 359.98 169.556 356.473C160.783 346.19 157.153 348.089 150.907 340.213C143.614 331.017 144.569 323.392 140.764 323.097C137.236 322.824 135.737 329.329 128.204 337.97C124.757 341.924 122.303 343.738 114.825 349.509C85.7058 371.983 85.241 373.563 79.3644 375.355C76.7933 376.139 58.5446 381.705 52.0438 372.848C41.871 358.987 65.9035 317.212 77.6822 318.3Z" fill="#2F2E41"/>
<path d="M198.464 371.778C200.108 370.957 202.03 369.997 202.648 367.789C203.067 366.295 202.826 364.453 201.961 363.18C200.963 361.711 199.486 361.518 199.546 361.258C199.637 360.862 203.129 361.017 206.963 362.524C207.687 362.809 210.964 364.141 215.134 367.762C218.474 370.664 218.025 371.245 220.119 372.918C226.549 378.053 232.58 374.006 236.059 378.822C237.402 380.681 237.975 383.319 237.41 385.453C236.275 389.738 230.756 391.212 227.74 391.974C220.476 393.807 214.978 392.31 209.237 391.234C189.713 387.574 178.743 390.908 177.275 385.875C176.997 384.923 177.448 385.004 178.954 378.015C180.439 371.117 180.391 369.223 181.656 368.67C183.561 367.839 184.84 371.621 189.638 372.915C193.891 374.062 197.399 372.31 198.464 371.778Z" fill="#2F2E41"/>
<path d="M165.564 449.286L159.917 414.265L143.613 418.136L145.074 448.73L157.679 460.787L165.564 449.286Z" fill="#FFB6B6"/>
<path d="M84.0584 330.072C85.0791 330.989 88.049 334.35 92.5611 334.82C95.6405 335.14 98.0352 333.968 98.8194 333.612C108.549 329.199 134.701 330.607 151.77 342.366C155.636 345.029 157.814 347.381 159.268 350.383C161.328 354.64 160.986 358.25 161.247 367.509C161.39 372.575 161.888 377.621 162.071 382.685C163.142 412.33 167.168 417.633 162.798 423.58C157.951 430.177 147.078 431.7 143.022 427.514C141.361 425.8 141.518 423.825 140.812 419.054C138.743 405.064 134.781 404.368 133.588 393.949C132.196 381.783 136.834 376.071 133.835 373.45C131.053 371.02 126.529 375.466 115.935 377.91C111.087 379.028 108.14 378.996 99.0399 379.1C63.6011 379.505 62.4193 380.522 56.652 378.333C54.1287 377.376 36.2193 370.581 35.3111 359.191C33.8899 341.367 74.8617 321.813 84.0584 330.072Z" fill="#2F2E41"/>
<path d="M157.007 449.777C158.782 450.124 160.856 450.53 162.483 449.09C163.583 448.115 164.313 446.44 164.24 444.847C164.156 443.008 163.031 441.925 163.212 441.747C163.487 441.477 166.299 443.787 168.71 447.429C169.165 448.117 171.205 451.267 172.827 456.868C174.127 461.355 173.461 461.556 174.35 464.249C177.078 472.515 184.111 472.933 184.56 479.092C184.733 481.468 183.875 484.01 182.33 485.422C179.228 488.259 173.918 486.031 171.038 484.777C164.102 481.756 160.308 477.083 156.1 472.606C141.793 457.38 131.033 453.285 132.358 448.204C132.609 447.243 132.941 447.592 137.715 442.749C142.426 437.97 143.342 436.372 144.668 436.705C146.663 437.207 145.813 441.136 149.13 445.204C152.069 448.81 155.857 449.552 157.007 449.777Z" fill="#2F2E41"/>
<path d="M38.3004 208.442C39.1452 205.08 38.0841 203.855 39.1657 202.346C39.1657 202.346 39.6009 201.738 43.4919 200.1C42.3439 192.689 43.2035 191.436 43.2035 191.436C44.1942 189.992 46.1787 189.643 47.5298 189.832C50.3872 190.231 50.893 193.105 52.7213 193.041C55.247 192.952 58.2763 187.327 57.336 182.452C56.569 178.475 53.2619 175.522 52.4329 176.035C51.6109 176.543 48.652 174.302 47.5298 174.751C46.7634 175.058 43.1562 174.65 42.3383 175.072C41.445 175.533 38.887 178.404 38.6424 178.042C36.9429 175.529 36.9791 174.651 35.9931 174.109C34.2459 173.15 32.3463 174.924 29.071 176.676C22.332 180.283 20.3587 178.131 17.2459 181.168C15.6734 182.703 14.8302 185.635 13.208 191.436C10.9393 199.55 9.80502 203.606 10.9007 207.48C12.018 211.43 13.6635 210.57 16.0922 216.143C18.7957 222.347 17.8639 225.953 20.4185 227.373C22.3928 228.471 25.5657 227.773 26.7637 225.769C28.8147 222.339 23.5134 217.699 25.3216 212.293C26.4315 208.974 29.8555 206.458 31.9552 207.159C34.3294 207.951 34.5042 212.687 35.9931 212.613C37.268 212.551 38.1532 209.028 38.3004 208.442Z" fill="#2F2E41"/>
<path d="M21.8605 231.545C26.3013 226.005 44.3898 231.739 46.0876 240.529C46.786 244.145 44.208 245.671 44.934 249.834C45.9958 255.923 52.008 255.508 56.4707 261.706C62.8063 270.506 56.2793 279.108 63.3927 293.793C64.9127 296.931 66.1939 299.576 68.8727 302.136C75.0197 308.009 80.7404 305.995 83.8704 311.441C86.2111 315.513 85.2494 320.533 85.0241 321.709C84.1003 326.53 81.5967 327.705 79.8326 331.655C76.8974 338.228 80.2207 343.054 80.4094 350.908C80.6455 360.733 75.9519 374.354 66.5653 378.823C56.0199 383.844 43.3013 375.528 37.1467 367.272C33.4742 362.345 32.4081 357.8 30.8015 352.191C23.621 327.121 19.5643 329.388 14.0732 309.516C7.79583 286.797 6.56178 260.182 14.0732 251.759C15.0688 250.643 17.8087 248.063 19.5532 243.417C21.9005 237.165 19.8726 234.025 21.8605 231.545Z" fill="#052970"/>
<path d="M87.4781 360.495C90.9211 365.362 91.4548 371.283 88.6705 373.721C85.8861 376.158 80.8389 374.188 77.3952 369.319C75.9956 367.395 75.0305 365.126 74.5807 362.702L60.2266 341.876L67.6436 335.583L82.3574 355.895C84.3701 356.951 86.126 358.529 87.4781 360.495Z" fill="#FFB6B6"/>
<path d="M34.9085 252.656C35.5471 252.497 41.1356 251.208 45.5293 254.991C50.5763 259.337 50.3318 267.177 50.2461 269.926C50.048 276.278 47.8105 277.315 46.4795 283.545C43.9891 295.202 48.7317 306.035 51.3519 312.02C52.2589 314.092 55.1727 320.431 60.9728 327.258C72.2533 340.536 82.3185 347.523 82.3185 347.523L71.5057 358.216C71.5057 358.216 54.2821 352.375 42.6115 340.674C30.6402 328.671 12.2303 286.204 8.41386 275.86C8.0852 274.969 12.7407 289.452 21.6298 268.235C23.6574 263.395 27.3724 254.528 34.9085 252.656Z" fill="#052970"/>
<path d="M311.651 242.694L298.741 235.891C304.036 244.112 308.599 256.951 311.042 267.169C315.178 257.651 321.845 246.006 328.444 239.05L314.8 242.955C323.207 197.113 354.831 164.203 391.045 164.203L391.558 162.547C353.731 162.547 320.236 195.001 311.651 242.694Z" fill="#3F3D56"/>
<path d="M371.072 312.544H289.5C286.04 312.544 283.225 309.412 283.225 305.563C283.225 301.714 286.04 298.582 289.5 298.582H371.072C374.532 298.582 377.347 301.714 377.347 305.563C377.347 309.412 374.532 312.544 371.072 312.544Z" fill="#052970"/>
<path d="M479.614 312.544H398.042C394.582 312.544 391.767 309.412 391.767 305.563C391.767 301.714 394.582 298.582 398.042 298.582H479.614C483.074 298.582 485.889 301.714 485.889 305.563C485.889 309.412 483.074 312.544 479.614 312.544Z" fill="#E6E6E6"/>
<path d="M431.324 122.639H352.032C350.033 122.639 348.407 120.829 348.407 118.605C348.407 116.381 350.033 114.573 352.032 114.573H431.324C433.323 114.573 434.949 116.381 434.949 118.605C434.949 120.829 433.323 122.639 431.324 122.639Z" fill="#3F3D56"/>
<path d="M473.873 165.669H309.483C307.484 165.669 305.858 163.86 305.858 161.636C305.858 159.412 307.484 157.603 309.483 157.603H473.873C475.872 157.603 477.498 159.412 477.498 161.636C477.498 163.86 475.872 165.669 473.873 165.669Z" fill="#3F3D56"/>
<path d="M35.6422 553.694C35.6422 554.418 36.1652 555 36.8165 555H552.183C552.835 555 553.358 554.418 553.358 553.694C553.358 552.969 552.835 552.387 552.183 552.387H36.8165C36.1652 552.387 35.6422 552.969 35.6422 553.694Z" fill="#3F3D56"/>
<path d="M162.19 244.028C162.051 244.028 161.911 244.023 161.771 244.013C153.513 243.423 125.256 238.975 108.388 206.527C106.997 203.855 107.271 200.458 109.069 198.076L140.309 156.666C141.586 154.973 143.56 153.997 145.559 154.024C146.94 154.061 150.211 154.449 150.846 157.254C154.599 173.826 170.446 193.312 189.504 195.895C191.436 196.156 192.987 198.073 193.652 201.023C194.172 203.32 193.692 205.687 192.335 207.518L167.309 241.327C166.038 243.044 164.172 244.028 162.19 244.028ZM145.439 155.69C143.912 155.69 142.427 156.451 141.457 157.737L110.217 199.147C108.822 200.995 108.609 203.625 109.684 205.692C126.181 237.425 153.797 241.773 161.867 242.35C163.515 242.472 165.098 241.691 166.153 240.267L191.179 206.458C192.23 205.04 192.602 203.207 192.2 201.429C191.807 199.689 190.845 197.755 189.323 197.548C169.635 194.881 153.267 174.767 149.393 157.661C149.08 156.276 147.191 155.735 145.528 155.691C145.498 155.69 145.468 155.69 145.439 155.69Z" fill="#3F3D56"/>
<path d="M127.319 207.889L149.842 182.341C151.382 180.594 148.97 177.907 147.428 179.655L124.905 205.204C123.366 206.95 125.778 209.638 127.319 207.889Z" fill="#E6E6E6"/>
<path d="M140.913 215.087C147.129 208.889 152.531 201.712 156.954 193.837C158.122 191.759 155.169 189.85 154.006 191.92C149.73 199.534 144.508 206.41 138.499 212.402C136.86 214.037 139.281 216.715 140.913 215.087Z" fill="#E6E6E6"/>
<path d="M153.165 223.706C158.825 216.732 163.642 208.947 167.435 200.551C168.419 198.373 165.475 196.447 164.487 198.634C160.823 206.747 156.22 214.28 150.751 221.021C149.282 222.831 151.689 225.525 153.165 223.706Z" fill="#E6E6E6"/>
<path d="M143.516 177.711C156.057 177.711 166.223 166.639 166.223 152.981C166.223 139.323 156.057 128.25 143.516 128.25C130.974 128.25 120.808 139.323 120.808 152.981C120.808 166.639 130.974 177.711 143.516 177.711Z" fill="#052970"/>
<path d="M155.331 164.712C151.839 155.159 148.346 145.607 144.854 136.054C144.372 134.735 142.861 134.688 142.39 136.054C138.939 146.069 136.684 156.52 135.6 167.174C135.416 168.989 137.972 168.975 138.156 167.174C138.58 163.005 139.21 158.867 140.018 154.772C142.896 154.94 145.797 154.581 148.574 153.726C150.005 157.64 151.436 161.554 152.867 165.467C153.478 167.14 155.951 166.408 155.331 164.712ZM140.597 151.962C141.458 148.043 142.49 144.17 143.687 140.359L147.604 151.071C145.31 151.741 142.964 152.039 140.597 151.962Z" fill="white"/>
</g>
<defs>
<clipPath id="clip0_1266_12448">
<rect width="589" height="555" fill="white"/>
</clipPath>
</defs>
</svg>
